<svg width="68" height="69" viewBox="0 0 68 69" fill="none" xmlns="http://www.w3.org/2000/svg">
<path d="M7.72727 0H29.8788V8.8H7.72727V33.1294L23.1818 32.0941L38.6364 0H66.9697L68 35.2L59.2424 44H36.0606V35.2H59.2424V9.83529H44.303L28.3333 42.9647H0V6.72941L7.72727 0Z" fill="#234A9B"/>
<path d="M10.2592 57.6385H8.5973C8.53338 57.2834 8.41442 56.9709 8.24041 56.701C8.06641 56.4311 7.85334 56.2021 7.60121 56.0138C7.34908 55.8256 7.06676 55.6836 6.75426 55.5877C6.44531 55.4918 6.11683 55.4439 5.76882 55.4439C5.14027 55.4439 4.57741 55.6019 4.08026 55.918C3.58665 56.234 3.19602 56.6974 2.90838 57.3082C2.62429 57.919 2.48224 58.6648 2.48224 59.5455C2.48224 60.4332 2.62429 61.1825 2.90838 61.7933C3.19602 62.4041 3.58842 62.8658 4.08558 63.1783C4.58274 63.4908 5.14205 63.647 5.76349 63.647C6.10795 63.647 6.43466 63.6009 6.74361 63.5085C7.05611 63.4126 7.33842 63.2724 7.59055 63.0877C7.84268 62.9031 8.05575 62.6776 8.22976 62.4112C8.40732 62.1413 8.52983 61.8324 8.5973 61.4844L10.2592 61.4897C10.1705 62.0259 9.99822 62.5195 9.74254 62.9705C9.49041 63.418 9.16548 63.805 8.76776 64.1317C8.37358 64.4549 7.92259 64.7053 7.41477 64.8828C6.90696 65.0604 6.35298 65.1491 5.75284 65.1491C4.80824 65.1491 3.96662 64.9254 3.22798 64.478C2.48935 64.027 1.90696 63.3825 1.48082 62.5444C1.05824 61.7063 0.846946 60.7067 0.846946 59.5455C0.846946 58.3807 1.06001 57.381 1.48615 56.5465C1.91229 55.7085 2.49467 55.0657 3.23331 54.6183C3.97195 54.1673 4.81179 53.9418 5.75284 53.9418C6.33168 53.9418 6.87145 54.0252 7.37216 54.1921C7.87642 54.3555 8.32919 54.5969 8.73047 54.9165C9.13175 55.2326 9.46378 55.6197 9.72656 56.0778C9.98935 56.5323 10.1669 57.0526 10.2592 57.6385ZM12.2288 65V54.0909H13.8747V58.8317H19.3133V54.0909H20.9646V65H19.3133V60.2433H13.8747V65H12.2288ZM23.3616 65V54.0909H27.2501C28.0953 54.0909 28.7966 54.2365 29.3541 54.5277C29.9152 54.8189 30.3343 55.2219 30.6112 55.7369C30.8882 56.2482 31.0267 56.8395 31.0267 57.5107C31.0267 58.1783 30.8865 58.766 30.6059 59.2738C30.3289 59.7781 29.9099 60.1705 29.3488 60.451C28.7913 60.7315 28.0899 60.8718 27.2448 60.8718H24.2991V59.4549H27.0956C27.6283 59.4549 28.0615 59.3786 28.3953 59.2259C28.7327 59.0732 28.9795 58.8512 29.1357 58.56C29.292 58.2688 29.3701 57.919 29.3701 57.5107C29.3701 57.0987 29.2902 56.7418 29.1304 56.44C28.9742 56.1381 28.7274 55.9073 28.39 55.7475C28.0562 55.5842 27.6176 55.5025 27.0743 55.5025H25.0075V65H23.3616ZM28.7469 60.0781L31.4422 65H29.5672L26.9252 60.0781H28.7469ZM42.5058 59.5455C42.5058 60.7102 42.2927 61.7116 41.8666 62.5497C41.4404 63.3842 40.8563 64.027 40.1141 64.478C39.3754 64.9254 38.5356 65.1491 37.5945 65.1491C36.6499 65.1491 35.8066 64.9254 35.0644 64.478C34.3257 64.027 33.7433 63.3825 33.3172 62.5444C32.8911 61.7063 32.678 60.7067 32.678 59.5455C32.678 58.3807 32.8911 57.381 33.3172 56.5465C33.7433 55.7085 34.3257 55.0657 35.0644 54.6183C35.8066 54.1673 36.6499 53.9418 37.5945 53.9418C38.5356 53.9418 39.3754 54.1673 40.1141 54.6183C40.8563 55.0657 41.4404 55.7085 41.8666 56.5465C42.2927 57.381 42.5058 58.3807 42.5058 59.5455ZM40.8758 59.5455C40.8758 58.6577 40.732 57.9102 40.4443 57.3029C40.1602 56.6921 39.7696 56.2305 39.2725 55.918C38.7789 55.6019 38.2195 55.4439 37.5945 55.4439C36.966 55.4439 36.4049 55.6019 35.9113 55.918C35.4177 56.2305 35.0271 56.6921 34.7394 57.3029C34.4553 57.9102 34.3133 58.6577 34.3133 59.5455C34.3133 60.4332 34.4553 61.1825 34.7394 61.7933C35.0271 62.4006 35.4177 62.8622 35.9113 63.1783C36.4049 63.4908 36.966 63.647 37.5945 63.647C38.2195 63.647 38.7789 63.4908 39.2725 63.1783C39.7696 62.8622 40.1602 62.4006 40.4443 61.7933C40.732 61.1825 40.8758 60.4332 40.8758 59.5455ZM44.5579 54.0909H46.5554L50.0284 62.571H50.1562L53.6293 54.0909H55.6268V65H54.0607V57.1058H53.9595L50.7422 64.984H49.4425L46.2251 57.1005H46.1239V65H44.5579V54.0909ZM58.9413 65H57.1942L61.1199 54.0909H63.0216L66.9474 65H65.2002L62.116 56.0724H62.0308L58.9413 65ZM59.2343 60.728H64.9019V62.1129H59.2343V60.728Z" fill="#234A9B"/>
</svg>
