<svg width="124" height="66" viewBox="0 0 124 66" fill="none" xmlns="http://www.w3.org/2000/svg">
<g clip-path="url(#clip0_1268_434)">
<path d="M65.6602 42.8397V47.7297L66.3502 47.6697V42.7197L65.6602 42.8397Z" fill="#0033A1"/>
<path d="M67.25 42.8398H68.46C69.92 42.8398 70.9 44.0098 70.9 45.2598C70.9 46.5098 69.93 47.6798 68.46 47.6798H67.25V42.8398ZM67.94 47.0398H68.45C69.27 47.0398 70.2 46.3598 70.2 45.2598C70.2 44.1598 69.27 43.4798 68.45 43.4798H67.94V47.0398Z" fill="#0033A1"/>
<path d="M77.5995 47.0805C77.2895 47.4605 76.5395 47.7905 75.6995 47.7905C74.4095 47.7905 73.2695 46.6205 73.2695 45.3205C73.2695 43.9005 74.3395 42.7305 75.7795 42.7305C76.4395 42.7305 77.1095 42.9505 77.5395 43.3905L77.1295 43.8605C76.7595 43.5805 76.3795 43.3605 75.8095 43.3605C74.8295 43.3605 73.9595 44.1905 73.9595 45.3205C73.9595 46.1405 74.6895 47.1505 75.6795 47.1505C76.1095 47.1505 76.5995 47.0405 76.9095 46.7205V45.5705H75.4695L75.7095 44.9305H77.6095V47.0805H77.5995Z" fill="#0033A1"/>
<path d="M78.5586 47.7598V42.8398H79.7486C80.4686 42.8398 81.3386 43.2098 81.3386 44.3098C81.3386 45.0298 80.9286 45.4198 80.2686 45.5698L81.7286 47.5898L80.9486 47.7898L79.2686 45.3298H79.2586V47.6798L78.5586 47.7598ZM79.2486 45.1698H79.7386C80.2086 45.1698 80.6386 44.8298 80.6386 44.2998C80.6386 43.7298 80.2686 43.4698 79.7386 43.4698H79.2486V45.1698Z" fill="#0033A1"/>
<path d="M84.4306 42.7305C85.8306 42.7305 86.9706 43.8405 86.9706 45.2605C86.9706 46.6805 85.8306 47.7905 84.4306 47.7905C83.0306 47.7905 81.8906 46.6805 81.8906 45.2605C81.8906 43.8305 83.0306 42.7305 84.4306 42.7305ZM84.4306 47.1505C85.4506 47.1505 86.2806 46.2605 86.2806 45.2505C86.2806 44.2405 85.4506 43.3505 84.4306 43.3505C83.4106 43.3505 82.5806 44.2405 82.5806 45.2505C82.5806 46.2605 83.4106 47.1505 84.4306 47.1505Z" fill="#0033A1"/>
<path d="M91.0411 42.7305V45.8105C91.0411 47.3005 90.5611 47.7905 89.3411 47.7905C88.0111 47.7905 87.6211 47.2005 87.6211 45.8105V42.8405L88.3111 42.7305V46.1805C88.3111 46.8005 88.6711 47.1605 89.2811 47.1605C89.8711 47.1605 90.3511 46.8905 90.3511 46.1805V42.8505L91.0411 42.7305Z" fill="#0033A1"/>
<path d="M91.9414 47.7598V42.8398H93.2414C94.2314 42.8398 94.8814 43.4298 94.8814 44.2598C94.8814 45.4498 94.0514 45.8298 93.0014 45.8298H92.6314V47.6798L91.9414 47.7598ZM92.6314 45.1898H93.1714C93.8314 45.1898 94.1914 44.9398 94.1914 44.2598C94.1914 43.6698 93.7014 43.4698 93.1714 43.4698H92.6314V45.1898Z" fill="#0033A1"/>
<path d="M7.42969 40.4601V25.2801H10.2897V26.8601C10.7797 26.2601 11.2897 25.8201 11.8197 25.5201C12.3497 25.2301 12.8897 25.0801 13.4597 25.0801C13.9997 25.0801 14.4397 25.2301 14.7797 25.5201C15.1197 25.8201 15.3497 26.2601 15.4797 26.8601C15.9297 26.3101 16.4297 25.8801 16.9897 25.5801C17.5497 25.2701 18.0997 25.1201 18.6197 25.1201C19.3197 25.1201 19.8497 25.3301 20.1897 25.7601C20.5297 26.1901 20.7097 26.8301 20.7097 27.6801V40.4701H17.8497V29.0101C17.8497 28.5301 17.7897 28.2201 17.6897 28.0601C17.5797 27.9001 17.3797 27.8201 17.0997 27.8201C16.8997 27.8201 16.6397 27.9301 16.3297 28.1401C16.0197 28.3501 15.7297 28.6301 15.4797 28.9601V40.4701H12.8497V29.0101C12.8497 28.5501 12.7897 28.2301 12.6697 28.0601C12.5497 27.9001 12.3397 27.8101 12.0397 27.8101C11.8197 27.8101 11.5497 27.9101 11.2197 28.1201C10.8897 28.3301 10.5797 28.6001 10.2897 28.9501V40.4601H7.42969Z" fill="#EA0029"/>
<path d="M32.0406 38.7496C31.5906 39.3596 31.1006 39.8296 30.5506 40.1596C30.0006 40.4896 29.4406 40.6596 28.8706 40.6596C28.0806 40.6596 27.4706 40.3696 27.0406 39.7896C26.6106 39.2096 26.3906 38.3897 26.3906 37.3097C26.3906 35.9097 26.7906 34.7196 27.5806 33.7296C28.3706 32.7496 29.8306 31.6896 31.9506 30.5496V28.9096C31.9506 28.4596 31.8706 28.1096 31.7106 27.8696C31.5506 27.6296 31.3106 27.5196 31.0006 27.5196C30.6006 27.5196 30.2906 27.6396 30.0606 27.8596C29.8306 28.0896 29.7206 28.3996 29.7206 28.7996V29.6396H26.8606C26.8606 29.5896 26.8606 29.5196 26.8506 29.4396C26.8406 29.3596 26.8406 29.2896 26.8406 29.2396C26.8406 27.9696 27.2406 26.9296 28.0506 26.1096C28.8606 25.2896 29.8706 24.8896 31.0906 24.8896C32.3706 24.8896 33.3206 25.2796 33.9406 26.0596C34.5606 26.8396 34.8706 28.0296 34.8706 29.6496V36.1196C34.8706 37.1296 34.8906 38.0196 34.9406 38.7796C34.9906 39.5396 35.0506 40.0996 35.1406 40.4596H32.3106C32.2306 40.2596 32.1806 40.0296 32.1306 39.7596C32.0906 39.4896 32.0606 39.1496 32.0406 38.7496ZM31.9506 36.6796V32.7397C30.9406 33.3897 30.2506 33.9997 29.8706 34.5597C29.4906 35.1197 29.3006 35.7996 29.3006 36.5896C29.3006 37.0696 29.3806 37.4296 29.5306 37.6896C29.6806 37.9496 29.8906 38.0696 30.1706 38.0696C30.5006 38.0696 30.8306 37.9396 31.1606 37.6896C31.4906 37.4396 31.7606 37.0996 31.9506 36.6796Z" fill="#EA0029"/>
<path d="M40.9492 40.4604V25.2804H43.8092V27.3404C44.1692 26.6004 44.5992 26.0404 45.0992 25.6704C45.5992 25.2904 46.1692 25.1104 46.8092 25.1104H47.0892V28.2804C46.9592 28.2104 46.8092 28.1604 46.6592 28.1304C46.5092 28.1004 46.3392 28.0804 46.1592 28.0804C45.4292 28.0804 44.8492 28.3004 44.4292 28.7304C44.0092 29.1704 43.7992 29.7604 43.7992 30.5204V40.4504H40.9492V40.4604Z" fill="#EA0029"/>
<path d="M54.0514 36.0104C53.3814 35.5904 52.9014 35.1104 52.6214 34.5804C52.3414 34.0504 52.2014 33.3304 52.2014 32.4304V29.4004C52.2014 27.9704 52.5414 26.8604 53.2214 26.0804C53.9014 25.3004 54.8514 24.9004 56.0914 24.9004C56.7414 24.9004 57.3414 25.0404 57.8714 25.3104C58.4014 25.5904 58.9014 26.0104 59.3814 26.5904C59.5914 26.1404 59.8714 25.7804 60.2314 25.5304C60.5914 25.2804 61.0114 25.1304 61.5214 25.0804V27.5404C61.3914 27.5204 61.2814 27.5104 61.1914 27.4904C61.0914 27.4804 61.0114 27.4704 60.9414 27.4704C60.7014 27.4704 60.4914 27.5204 60.3114 27.6204C60.1214 27.7204 59.9814 27.8604 59.8614 28.0504C59.8714 28.2204 59.8714 28.3904 59.8814 28.5604C59.8914 28.7304 59.8914 28.9004 59.8914 29.0604V32.4404C59.8914 33.7604 59.5814 34.7704 58.9514 35.4704C58.3214 36.1704 57.4214 36.5204 56.2514 36.5204C56.0914 36.5104 55.8614 36.4904 55.5714 36.4604C55.5414 36.4604 55.5214 36.4504 55.5014 36.4404C55.2814 36.6004 55.1214 36.7704 55.0014 36.9304C54.8914 37.1004 54.8314 37.2604 54.8314 37.4104C54.8314 37.8404 55.3914 38.1004 56.4914 38.1604C57.1514 38.2004 57.6814 38.2404 58.0814 38.3004C59.3114 38.4804 60.2214 38.8504 60.8014 39.4004C61.3814 39.9504 61.6714 40.7204 61.6714 41.7104C61.6714 42.9004 61.2114 43.7904 60.2814 44.3904C59.3614 44.9904 57.9914 45.2904 56.1914 45.2904C54.6914 45.2904 53.5214 45.0804 52.6914 44.6504C51.8614 44.2304 51.4414 43.6304 51.4414 42.8704C51.4414 42.6304 51.5014 42.3904 51.6114 42.1504C51.7214 41.9004 51.8814 41.6804 52.0814 41.4804C52.2714 41.2904 52.5114 41.1104 52.8114 40.9404C53.1114 40.7704 53.4914 40.5904 53.9714 40.4004C53.4114 40.2604 52.9814 40.0304 52.6814 39.7304C52.3814 39.4304 52.2214 39.0704 52.2214 38.6504C52.2214 38.1704 52.3514 37.7304 52.6214 37.3304C52.8714 36.9704 53.3514 36.5204 54.0514 36.0104ZM55.6214 40.8204C55.2514 40.9904 54.9814 41.1704 54.8014 41.3704C54.6214 41.5604 54.5414 41.7804 54.5414 42.0204C54.5414 42.3404 54.7314 42.6204 55.1214 42.8604C55.5114 43.1004 56.0014 43.2104 56.5914 43.2104C57.3314 43.2104 57.9314 43.0904 58.4014 42.8604C58.8614 42.6304 59.1014 42.3304 59.1014 41.9704C59.1014 41.5704 58.8414 41.2804 58.3214 41.1004C57.8014 40.9204 56.9014 40.8304 55.6214 40.8204ZM57.2814 32.6004V29.0704C57.2814 28.5504 57.1814 28.1604 56.9714 27.9104C56.7614 27.6604 56.4514 27.5304 56.0314 27.5304C55.6114 27.5304 55.3114 27.6504 55.1114 27.9004C54.9114 28.1504 54.8114 28.5304 54.8114 29.0704V32.6004C54.8114 33.1304 54.9114 33.5204 55.1114 33.7704C55.3114 34.0204 55.6214 34.1504 56.0314 34.1504C56.4514 34.1504 56.7614 34.0204 56.9714 33.7704C57.1814 33.5104 57.2814 33.1204 57.2814 32.6004Z" fill="#EA0029"/>
<path d="M69.0788 25.2803H66.2188V40.4603H69.0788V25.2803Z" fill="#EA0029"/>
<path d="M75.4297 40.4603V25.2803H78.2897V26.9403C78.8097 26.3303 79.3497 25.8703 79.9097 25.5503C80.4597 25.2303 80.9997 25.0703 81.5197 25.0703C82.1797 25.0703 82.6797 25.2903 83.0097 25.7403C83.3397 26.1803 83.5097 26.8503 83.5097 27.7503V40.4503H80.6797V29.0103C80.6797 28.5303 80.6297 28.2203 80.5197 28.0603C80.4097 27.9003 80.2097 27.8203 79.9297 27.8203C79.7197 27.8203 79.4597 27.9303 79.1497 28.1403C78.8397 28.3503 78.5497 28.6303 78.2897 28.9603V40.4703H75.4297V40.4603Z" fill="#EA0029"/>
<path d="M88.8008 36.3502L91.5308 35.7402C91.6508 36.6202 91.8608 37.2502 92.1608 37.6402C92.4508 38.0202 92.8708 38.2202 93.4008 38.2202C93.8008 38.2202 94.1208 38.1002 94.3508 37.8602C94.5908 37.6202 94.7008 37.2902 94.7008 36.8902C94.7008 36.1002 93.7408 34.9802 91.8308 33.5302L91.7608 33.4702C90.8008 32.7502 90.1208 32.0502 89.7208 31.3702C89.3208 30.6902 89.1108 29.9102 89.1108 29.0502C89.1108 27.8102 89.5008 26.8102 90.2608 26.0502C91.0308 25.2902 92.0308 24.9102 93.2708 24.9102C94.4408 24.9102 95.3808 25.2602 96.1008 25.9602C96.8208 26.6602 97.2308 27.6202 97.3108 28.8502L94.6408 29.4902C94.5408 28.8402 94.3608 28.3602 94.1108 28.0502C93.8608 27.7302 93.5408 27.5702 93.1308 27.5702C92.7508 27.5702 92.4508 27.6902 92.2308 27.9302C92.0108 28.1702 91.9008 28.5002 91.9008 28.9002C91.9008 29.5602 92.5708 30.4202 93.9008 31.4702C94.2608 31.7602 94.5408 31.9902 94.7408 32.1502C95.7908 33.0302 96.5108 33.8102 96.9008 34.4802C97.2908 35.1502 97.4808 35.9002 97.4808 36.7302C97.4808 37.9802 97.0908 38.9802 96.3208 39.7402C95.5508 40.4902 94.5308 40.8702 93.2508 40.8702C92.0408 40.8702 91.0308 40.4702 90.2408 39.6802C89.4708 38.8802 88.9808 37.7702 88.8008 36.3502Z" fill="#EA0029"/>
<path d="M64.75 20.56C64.75 22.23 66.1 23.58 67.77 23.58C69.44 23.58 70.79 22.23 70.79 20.56C70.79 18.89 69.44 17.54 67.77 17.54C66.1 17.54 64.75 18.89 64.75 20.56Z" fill="#0033A1"/>
<path d="M92.4405 63.0295C84.0005 63.0295 76.0105 59.3495 70.5105 52.9295L71.2705 52.2795C76.5805 58.4795 84.3005 62.0295 92.4405 62.0295C107.81 62.0295 120.32 49.5195 120.32 34.1495C120.32 18.7795 107.81 6.26953 92.4405 6.26953C83.3305 6.26953 74.7705 10.7395 69.5505 18.2395L68.7305 17.6695C74.1405 9.89953 83.0005 5.26953 92.4405 5.26953C108.36 5.26953 121.32 18.2195 121.32 34.1495C121.32 50.0795 108.36 63.0295 92.4405 63.0295Z" fill="#0033A1"/>
</g>
<defs>
<clipPath id="clip0_1268_434">
<rect width="124" height="66" fill="white"/>
</clipPath>
</defs>
</svg>
